<svg version="1.2" xmlns="http://www.w3.org/2000/svg" viewBox="0 0 134 159" width="134" height="159">
	<title>aleph-bookstyle2</title>
	<style>
		.s0 { fill: #ffffff } 
		.s1 { fill: #000000 } 
	</style>
	<g id="Background">
		<path id="Path 0" class="s0" d="m0 0h134v159h-134v-79.5z"/>
		<path id="Path 1" class="s1" d="m25.9 11.4c0.3 0.2 1.6 2.3 2.8 4.7 1.2 2.4 4 6.9 6.3 9.9 2.2 3 8.2 9.7 13.3 14.9 5 5.2 13.5 13.1 18.7 17.5 5.2 4.5 10.3 8.7 11.3 9.4 1.5 1 2.1 0.5 5.1-4.1 1.8-2.8 4.1-5.8 5-6.5 1.5-1.1 1.3-1.7-1.3-6.5-1.5-2.8-3.2-7.2-3.6-9.7-0.5-2.9-0.2-7.2 0.8-12 0.8-4.1 2.5-9.7 3.8-12.3 1.3-2.6 3-5 3.7-5.2 0.7-0.3 2.1 1.2 3.2 3.5 1.1 2.2 6.2 8.4 11.4 13.7 7.8 8.2 9.6 10.7 11 15.3 0.9 3.1 1.6 9 1.6 13.5 0 4.4-0.7 10.4-1.5 13.2-1 3.5-2.5 6-4.2 7.4-1.6 1.1-3.7 1.9-4.8 1.7-1.5-0.2-2.3-1.6-3.3-5.3-0.6-2.8-1.9-5.7-2.7-6.5-1.2-1.1-2-1.2-3.3-0.4-0.9 0.6-3.4 3.6-9.2 12.4l7.8 8.3c4.2 4.5 9.5 11 11.7 14.2 2.1 3.3 4.8 8.2 5.9 11 1.2 3.2 1.9 7.5 1.9 12 0.1 3.8-0.7 9.7-1.7 13-0.9 3.3-2.6 7.9-3.7 10.2-1 2.4-2.5 4.3-3.1 4.3-0.7 0-2.1-2.3-3-5.2-0.9-2.9-3.9-8.7-6.7-12.8-2.7-4.1-9.2-12-14.3-17.6-5.1-5.5-13.3-13.8-18.3-18.4-5-4.6-10.7-10-16.4-15.5l-1.3 2.9c-0.7 1.5-3.4 4.3-10.8 9.6l0.3 5.8c0.1 4.3 0.9 6.8 2.7 9.5 1.4 2.1 5.7 6.3 9.5 9.5 4.4 3.6 7.8 7.4 9.2 10.2 1.3 2.5 2.3 6.4 2.3 8.8 0 2.3-0.5 5.1-1 6.2-0.5 1.1-2.6 2.7-4.5 3.5-2.7 1.1-7.6 1.5-20.5 1.5-9.3 0-17.7-0.2-18.5-0.5-0.8-0.3-1.5-1.2-1.5-2 0-0.8 1.8-3.7 4-6.5 2.2-2.7 4-5.7 4-6.5 0-0.8-1.7-3.1-7.5-8.5v-15.2c0-12.7 0.3-15.9 1.8-18.6 1-1.8 4.5-5 8.5-7.6 3.7-2.4 7.9-5.7 9.5-7.5 1.5-1.7 2.7-3.6 2.7-4.1 0-0.5-4.2-5.2-9.3-10.3-6-5.9-10.2-11-11.7-14.2-1.3-2.7-2.6-7-2.8-9.5-0.3-2.9 0.3-7.1 1.8-12 1.2-4.1 2.9-8.9 3.7-10.5 0.9-1.6 2.2-3.8 3-4.7 0.8-1 1.8-1.6 2.2-1.4z"/>
	</g>
</svg>