<?xml version="1.0" encoding="UTF-8" standalone="no"?>
<svg
   version="1.2"
   viewBox="0 0 134 159"
   width="134"
   height="159"
   id="svg29"
   sodipodi:docname="aleph3.svg"
   inkscape:version="1.1.2 (b8e25be833, 2022-02-05)"
   xmlns:inkscape="http://www.inkscape.org/namespaces/inkscape"
   xmlns:sodipodi="http://sodipodi.sourceforge.net/DTD/sodipodi-0.dtd"
   xmlns="http://www.w3.org/2000/svg"
   xmlns:svg="http://www.w3.org/2000/svg"
   xmlns:rdf="http://www.w3.org/1999/02/22-rdf-syntax-ns#"
   xmlns:cc="http://creativecommons.org/ns#"
   xmlns:dc="http://purl.org/dc/elements/1.1/">
  <defs
     id="defs33">
    <filter
       inkscape:label="Channel Transparency"
       style="color-interpolation-filters:sRGB;"
       id="filter793"
       x="0"
       y="0"
       width="1"
       height="1">
      <feColorMatrix
         values="1 0 0 0 0 0 1 0 0 0 0 0 1 0 0 -10 -10 -10 10 0 "
         in="SourceGraphic"
         result="colormatrix"
         id="feColorMatrix789" />
      <feComposite
         in="colormatrix"
         in2="SourceGraphic"
         operator="in"
         result="fbSourceGraphic"
         id="feComposite791" />
      <feColorMatrix
         result="fbSourceGraphicAlpha"
         in="fbSourceGraphic"
         values="0 0 0 -1 0 0 0 0 -1 0 0 0 0 -1 0 0 0 0 1 0"
         id="feColorMatrix813" />
      <feColorMatrix
         id="feColorMatrix815"
         values="1 0 0 0 0 0 1 0 0 0 0 0 1 0 0 -10 -10 -10 10 0 "
         in="fbSourceGraphic"
         result="colormatrix" />
      <feComposite
         in2="fbSourceGraphic"
         id="feComposite817"
         in="colormatrix"
         operator="in"
         result="composite1" />
    </filter>
  </defs>
  <sodipodi:namedview
     id="namedview31"
     pagecolor="#ffffff"
     bordercolor="#111111"
     borderopacity="1"
     inkscape:pageshadow="0"
     inkscape:pageopacity="0"
     inkscape:pagecheckerboard="1"
     showgrid="false"
     inkscape:zoom="2"
     inkscape:cx="42.75"
     inkscape:cy="73.75"
     inkscape:window-width="1920"
     inkscape:window-height="1001"
     inkscape:window-x="-9"
     inkscape:window-y="-9"
     inkscape:window-maximized="1"
     inkscape:current-layer="layer1" />
  <title
     id="title22">aleph-bookstyle2</title>
  <style
     id="style24">
		.s0 { fill: #ffffff } 
		.s1 { fill: #000000 } 
	</style>
  <g
     inkscape:groupmode="layer"
     id="layer1"
     inkscape:label="Layer 1"
     style="display:inline">
    <g
       id="Background"
       style="filter:url(#filter793)">
      <path
         id="Path 0"
         class="s0"
         d="M 0,0 H 134 V 159 H 0 V 79.5 Z" />
      <path
         id="Path 1"
         class="s1"
         d="m 25.9,11.4 c 0.3,0.2 1.6,2.3 2.8,4.7 1.2,2.4 4,6.9 6.3,9.9 2.2,3 8.2,9.7 13.3,14.9 5,5.2 13.5,13.1 18.7,17.5 5.2,4.5 10.3,8.7 11.3,9.4 1.5,1 2.1,0.5 5.1,-4.1 1.8,-2.8 4.1,-5.8 5,-6.5 1.5,-1.1 1.3,-1.7 -1.3,-6.5 -1.5,-2.8 -3.2,-7.2 -3.6,-9.7 -0.5,-2.9 -0.2,-7.2 0.8,-12 0.8,-4.1 2.5,-9.7 3.8,-12.3 1.3,-2.6 3,-5 3.7,-5.2 0.7,-0.3 2.1,1.2 3.2,3.5 1.1,2.2 6.2,8.4 11.4,13.7 7.8,8.2 9.6,10.7 11,15.3 0.9,3.1 1.6,9 1.6,13.5 0,4.4 -0.7,10.4 -1.5,13.2 -1,3.5 -2.5,6 -4.2,7.4 -1.6,1.1 -3.7,1.9 -4.8,1.7 -1.5,-0.2 -2.3,-1.6 -3.3,-5.3 -0.6,-2.8 -1.9,-5.7 -2.7,-6.5 -1.2,-1.1 -2,-1.2 -3.3,-0.4 -0.9,0.6 -3.4,3.6 -9.2,12.4 l 7.8,8.3 c 4.2,4.5 9.5,11 11.7,14.2 2.1,3.3 4.8,8.2 5.9,11 1.2,3.2 1.9,7.5 1.9,12 0.1,3.8 -0.7,9.7 -1.7,13 -0.9,3.3 -2.6,7.9 -3.7,10.2 -1,2.4 -2.5,4.3 -3.1,4.3 -0.7,0 -2.1,-2.3 -3,-5.2 -0.9,-2.9 -3.9,-8.7 -6.7,-12.8 C 96.4,130.9 89.9,123 84.8,117.4 79.7,111.9 71.5,103.6 66.5,99 61.5,94.4 55.8,89 50.1,83.5 l -1.3,2.9 C 48.1,87.9 45.4,90.7 38,96 l 0.3,5.8 c 0.1,4.3 0.9,6.8 2.7,9.5 1.4,2.1 5.7,6.3 9.5,9.5 4.4,3.6 7.8,7.4 9.2,10.2 1.3,2.5 2.3,6.4 2.3,8.8 0,2.3 -0.5,5.1 -1,6.2 -0.5,1.1 -2.6,2.7 -4.5,3.5 -2.7,1.1 -7.6,1.5 -20.5,1.5 -9.3,0 -17.7,-0.2 -18.5,-0.5 -0.8,-0.3 -1.5,-1.2 -1.5,-2 0,-0.8 1.8,-3.7 4,-6.5 2.2,-2.7 4,-5.7 4,-6.5 0,-0.8 -1.7,-3.1 -7.5,-8.5 v -15.2 c 0,-12.7 0.3,-15.9 1.8,-18.6 1,-1.8 4.5,-5 8.5,-7.6 3.7,-2.4 7.9,-5.7 9.5,-7.5 C 37.8,76.4 39,74.5 39,74 39,73.5 34.8,68.8 29.7,63.7 23.7,57.8 19.5,52.7 18,49.5 16.7,46.8 15.4,42.5 15.2,40 14.9,37.1 15.5,32.9 17,28 c 1.2,-4.1 2.9,-8.9 3.7,-10.5 0.9,-1.6 2.2,-3.8 3,-4.7 0.8,-1 1.8,-1.6 2.2,-1.4 z" />
    </g>
    <path
       style="fill:#222e50;fill-opacity:0.81568629;stroke:#d40000;stroke-width:0.176777"
       d="m 108.02668,152.98133 c -0.52228,-0.41083 -1.8214,-2.88044 -2.31486,-4.40052 -0.42344,-1.30437 -2.20498,-5.33004 -3.32485,-7.51301 -0.99319,-1.93601 -3.698516,-6.06644 -5.789219,-8.83883 -3.797289,-5.03542 -4.89078,-6.45539 -5.715592,-7.42207 -3.606852,-4.2272 -13.938492,-15.17414 -19.189492,-20.33231 -5.119366,-5.02886 -21.371756,-20.330897 -21.47479,-20.219055 -0.03392,0.03682 -0.4063,0.782894 -0.827508,1.657939 -0.669998,1.391901 -1.009849,1.835096 -2.715848,3.541717 -1.175535,1.175965 -3.196242,2.888544 -5.087803,4.311992 l -3.137787,2.361263 0.0027,1.344864 c 0.0046,2.267393 0.347202,6.55669 0.636156,7.9648 0.68233,3.32507 1.565372,5.10423 3.75765,7.57093 1.205435,1.35633 6.003618,5.85371 8.861712,8.30616 2.59337,2.2253 5.779388,5.54029 6.83993,7.1168 1.383085,2.05598 2.694171,4.82166 3.178127,6.70413 0.814283,3.16735 0.742559,8.00896 -0.154151,10.40563 -0.843545,2.25458 -4.40646,4.51224 -8.096139,5.13017 -3.752586,0.62846 -16.167263,0.82497 -30.299729,0.4796 l -5.639379,-0.13782 -0.767777,-0.70771 c -0.873306,-0.80499 -1.207672,-1.6986 -0.959437,-2.56414 0.262521,-0.91536 3.186174,-5.25385 4.687811,-6.95638 0.83395,-0.94552 2.425466,-3.5624 2.862466,-4.70667 0.289328,-0.75759 0.287898,-0.81899 -0.03345,-1.43674 -0.184631,-0.35494 -1.873311,-2.19602 -3.752623,-4.09129 l -3.416935,-3.44596 0.06963,-14.05494 c 0.07548,-15.236453 0.06692,-15.092546 1.099603,-18.474348 0.807131,-2.64316 3.115532,-4.890812 10.075251,-9.810101 5.379235,-3.802169 9.79415,-7.808294 10.763942,-9.767276 0.463338,-0.935946 0.481858,-1.047151 0.235517,-1.414214 C 37.961623,72.930962 36.060865,70.870735 29.877611,64.346717 20.244463,54.182678 19.546682,53.342456 17.839339,49.851028 14.994573,44.033627 14.145807,38.85526 15.203685,33.770755 c 0.657994,-3.16253 1.72543,-6.966139 3.201658,-11.408503 1.317369,-3.964317 2.168033,-5.833206 3.661093,-8.04334 1.485834,-2.199437 3.492728,-3.897824 3.765597,-3.186737 0.05226,0.136179 0.198176,0.20801 0.324265,0.159625 0.332146,-0.127456 0.830405,0.585544 1.970207,2.819336 2.3808,4.665908 5.282664,9.266274 7.953369,12.608584 4.942498,6.185395 12.093996,13.816502 19.248833,20.539737 2.137679,2.008728 4.683263,4.408266 5.656854,5.332308 2.134059,2.025451 5.106389,4.592662 11.619868,10.036113 5.668679,4.737436 6.232285,5.165985 6.794027,5.165985 0.641878,0 1.534217,-1.0538 3.987334,-4.708815 1.257425,-1.873496 2.977859,-4.163136 3.926566,-5.225675 1.582307,-1.77216 1.681288,-1.927879 1.573127,-2.474874 -0.06348,-0.321047 -0.922656,-2.217762 -1.909269,-4.21492 -1.999474,-4.04744 -3.109596,-6.764261 -3.680907,-9.008337 -0.558846,-2.195116 -0.54281,-7.090549 0.03387,-10.339812 0.49215,-2.772992 1.883881,-8.324634 2.72583,-10.873392 1.235434,-3.739917 2.913748,-7.10058 4.341878,-8.694196 1.003831,-1.120152 1.257592,-1.247542 1.994693,-1.001353 0.888193,0.296653 1.425145,0.888801 2.452971,2.705133 0.971172,1.716214 3.522691,5.313337 5.037174,7.101393 1.284317,1.516318 3.886587,4.338361 7.151597,7.755586 1.57924,1.652862 3.5286,3.760925 4.33192,4.684583 1.83334,2.108 4.38981,5.603605 5.0379,6.8886 0.75603,1.498996 1.5349,3.849893 1.85265,5.591884 0.15784,0.865295 0.36266,1.971011 0.45517,2.457147 0.26472,1.391022 0.70098,7.339441 0.6979,9.515649 -0.007,5.250669 -1.00745,11.613935 -2.41783,15.385024 -0.56521,1.511297 -1.88492,3.505289 -3.02692,4.573498 -1.87707,1.755783 -4.98277,2.723144 -6.39613,1.992266 -1.14222,-0.590664 -1.7861,-1.874508 -2.8197,-5.622261 -0.66762,-2.420713 -1.65738,-4.783019 -2.50897,-5.988265 -0.39162,-0.554253 -1.393,-0.93416 -2.03656,-0.772636 -0.657947,0.165135 -2.215311,1.708657 -3.665106,3.63253 -1.730916,2.296921 -5.976999,8.64475 -5.908118,8.832541 0.03076,0.08385 1.730043,1.92932 3.776191,4.101045 4.899962,5.200682 11.341503,12.699691 14.324883,16.676514 2.46456,3.28522 6.73508,11.341 7.59072,14.31891 1.01424,3.52988 1.23343,5.41829 1.2311,10.6066 -0.003,6.64581 -0.54623,9.97454 -2.65999,16.29913 -1.87599,5.61314 -3.49501,9.09312 -4.92463,10.58516 -0.83424,0.87065 -1.24504,0.95713 -1.94212,0.40881 z"
       id="path2625" />
  </g>
  <path
     style="fill:none;stroke:#000000;stroke-width:1px;stroke-linecap:butt;stroke-linejoin:miter;stroke-opacity:1"
     d="m 25.9,11.4 c 0,0 -1.54901,-0.970175 -5.526486,6.587029 -3.314563,8.441087 -5.435883,17.942834 -5.259107,19.091883 -0.04419,1.325825 0,3.447145 0.30936,4.286835 0.08839,1.016466 1.635184,8.131728 5.745242,13.037281 4.110058,4.905553 18.208,18.915106 17.898641,19.533825 -0.265165,0.707106 -0.707107,1.988737 -2.695845,4.065864 -1.988738,2.077126 -6.584932,5.656854 -10.429825,8.26431 -3.844893,2.607456 -7.468815,6.098796 -7.866563,7.292039 -0.397748,1.193243 -1.59099,4.24264 -1.458408,9.766914 C 16.528621,108.89444 16.5,127 16.5,127 c 0,0 7.85099,7.04093 7.541631,8.41095 -0.30936,1.37002 -2.828428,5.56846 -3.712311,6.09879 -0.618719,0.97228 -3.844893,5.12653 -4.154252,6.31977 -0.30936,1.19324 0.574524,2.20971 1.458407,2.74004 1.502602,0.13258 20.948039,0.48614 24.925514,0.35355 2.253903,-0.0442 5.92202,-0.13258 8.308505,-0.35355 2.386485,-0.22097 4.905553,-0.30936 8.26431,-2.65165 1.193243,-1.01647 2.342292,-1.41421 2.695845,-5.70105 0.220971,-2.43068 0.132583,-6.58493 -1.458408,-9.76691 -1.59099,-3.18198 -2.607456,-5.74524 -11.092737,-12.68373 -4.949748,-4.68458 -8.529476,-7.64559 -9.63433,-10.87177 C 38.53732,105.66827 38.213981,104.53973 38,96 c 3.277358,-2.529323 6.14998,-4.562255 7.033863,-5.490332 1.06066,-0.795495 3.447146,-3.181981 3.933282,-4.596194 C 49.674251,84.455066 50.1,83.5 50.1,83.5 c 0,0 24.499765,22.87538 24.853319,23.67087 1.016466,0.97227 17.545087,18.07542 18.826718,20.77126 2.165514,2.69585 8.529473,10.73919 10.562403,16.35185 0.75131,1.54679 1.37002,2.96101 1.63519,3.88908 0.26516,0.92808 0.97227,2.47488 1.54679,3.57973 0.57453,1.10486 1.21386,1.2333 1.21386,1.2333 0,0 0.17188,0.11328 0.71485,-0.38672 0.48828,-0.53515 0.85156,-0.95312 1.36718,-1.78125 0.46094,-0.83593 1.0625,-1.97656 1.10156,-2.1875 0.13282,-0.26562 1.14844,-2.58593 1.27344,-3.00781 0.15625,-0.41406 1.01563,-2.73437 1.17188,-3.20312 0.15625,-0.46875 0.98437,-2.96094 1.05468,-3.32032 0.10157,-0.375 0.82032,-2.94531 0.92969,-3.82812 0.17969,-0.86719 0.67969,-4.15625 0.66406,-4.35156 0.0469,-0.42188 0.3125,-3.58594 0.27344,-4.16407 0.0156,-0.59375 -0.008,-4.33593 -0.15625,-4.89843 -0.0391,-0.60157 -0.34375,-3.17188 -0.5,-3.75 -0.15625,-0.57813 -0.375,-2.35157 -1.11719,-4.26563 -0.25781,-0.67187 -0.97656,-2.39844 -1.51562,-3.39844 -0.53906,-1 -1.22656,-2.44531 -1.73438,-3.26562 -0.46875,-0.875 -1.63281,-2.89063 -1.84375,-3.16406 -0.79687,-1.33594 -1.10937,-1.88282 -2.75781,-4.039065 C 107.36719,99.59375 98.875,89.1875 96.375,86.75 93.9375,84.125 90,80 90,80 c 0,0 3.75,-5.75 5.5,-8.125 1.875,-2.5 2.375,-3.0625 3.34375,-4 0.46875,-0.375 1.03125,-0.6875 1.625,-0.84375 0.6875,0.0625 1.375,0.1875 2,0.9375 0.625,0.75 2.09375,3.65625 2.3125,4.875 0.375,1.25 1.09375,4.6875 1.9375,5.75 1.03125,1 0.78125,1.09375 2.0625,1.21875 1.5,-0.21875 2.31875,-0.39375 4.51875,-1.7125 1.7625,-1.94375 3.075,-2.94375 4.45,-8.5375 0.875,-5.65625 1.34375,-6.5 1.1875,-14.09375 -0.15625,-2.1875 -0.40625,-6.71875 -0.71875,-7.21875 -0.125,-1.3125 -0.59375,-5.15625 -2.8125,-8.875 -2.6875,-3.71875 -2.59375,-3.75 -6.3125,-7.84375 -3.9375,-4.09375 -9.75,-10.09375 -11.1875,-12.375 C 96.1875,16.875 95.46875,16.03125 94.4375,14 93.84375,13 93.325,11.9375 92.5625,11.71875 91.791662,11.497608 91.550482,11.428417 91.8,11.5 v 0 0 0"
     id="path1991"
     sodipodi:nodetypes="ccccscsssccscsccsccscscccccccsscccccscccccscsccccccccscccccccccccscccc" />
  <path
     style="fill:none;stroke:#000000;stroke-width:1px;stroke-linecap:butt;stroke-linejoin:miter;stroke-opacity:1"
     d="m 91.8,11.5 c -1.290332,0.565009 -2.513767,3.019299 -2.837128,3.526019 -0.534546,0.837655 -2.077126,4.419417 -2.607457,6.231379 -0.530331,1.811961 -2.872621,9.32497 -3.137786,15.158601 -0.265165,5.833631 1.502602,8.396893 2.165515,10.562408 0.972271,2.165514 3.226174,6.408155 3.756504,7.73398 0.220971,1.149049 0.574525,1.458408 -0.353553,2.077126 -0.839689,0.928078 -3.314563,3.623923 -3.889087,4.728777 -0.83969,1.104854 -3.093592,4.905553 -3.623922,5.259107 -0.530331,0.7513 -0.83969,1.104854 -1.546797,1.370019 -0.441941,0.176777 -0.883883,0.220971 -2.430679,-1.104854 C 75.748814,65.716736 62.402173,54.800775 60.546018,52.679455 58.292115,50.558135 47.199378,40.526057 43.000931,35.311145 38.360543,30.096232 34.913397,26.516504 31.466252,20.85965 28.107495,15.026019 29.859146,18.281372 28.578125,15.875 27.296893,13.468233 26.732073,11.905086 25.9,11.4 l 0.03516,-0.101562"
     id="path1993"
     sodipodi:nodetypes="csssccccccscccscc" />
  <metadata
     id="metadata21147">
    <rdf:RDF>
      <cc:Work
         rdf:about="">
        <dc:title>aleph-bookstyle2</dc:title>
      </cc:Work>
    </rdf:RDF>
  </metadata>
</svg>
