<?xml version="1.0" encoding="UTF-8" standalone="no"?>
<svg
   version="1.2"
   viewBox="0 0 134 159"
   width="134"
   height="159"
   id="svg29"
   sodipodi:docname="aleph-bookstyle3.svg"
   inkscape:version="1.1.2 (b8e25be833, 2022-02-05)"
   xmlns:inkscape="http://www.inkscape.org/namespaces/inkscape"
   xmlns:sodipodi="http://sodipodi.sourceforge.net/DTD/sodipodi-0.dtd"
   xmlns="http://www.w3.org/2000/svg"
   xmlns:svg="http://www.w3.org/2000/svg">
  <defs
     id="defs33">
    <filter
       inkscape:label="Channel Transparency"
       style="color-interpolation-filters:sRGB;"
       id="filter793"
       x="0"
       y="0"
       width="1"
       height="1">
      <feColorMatrix
         values="1 0 0 0 0 0 1 0 0 0 0 0 1 0 0 -10 -10 -10 10 0 "
         in="SourceGraphic"
         result="colormatrix"
         id="feColorMatrix789" />
      <feComposite
         in="colormatrix"
         in2="SourceGraphic"
         operator="in"
         result="fbSourceGraphic"
         id="feComposite791" />
      <feColorMatrix
         result="fbSourceGraphicAlpha"
         in="fbSourceGraphic"
         values="0 0 0 -1 0 0 0 0 -1 0 0 0 0 -1 0 0 0 0 1 0"
         id="feColorMatrix813" />
      <feColorMatrix
         id="feColorMatrix815"
         values="1 0 0 0 0 0 1 0 0 0 0 0 1 0 0 -10 -10 -10 10 0 "
         in="fbSourceGraphic"
         result="colormatrix" />
      <feComposite
         in2="fbSourceGraphic"
         id="feComposite817"
         in="colormatrix"
         operator="in"
         result="composite1" />
    </filter>
  </defs>
  <sodipodi:namedview
     id="namedview31"
     pagecolor="#ffffff"
     bordercolor="#111111"
     borderopacity="1"
     inkscape:pageshadow="0"
     inkscape:pageopacity="0"
     inkscape:pagecheckerboard="1"
     showgrid="false"
     inkscape:zoom="4"
     inkscape:cx="70.625"
     inkscape:cy="98.625"
     inkscape:window-width="1920"
     inkscape:window-height="1001"
     inkscape:window-x="-9"
     inkscape:window-y="-9"
     inkscape:window-maximized="1"
     inkscape:current-layer="svg29" />
  <title
     id="title22">aleph-bookstyle2</title>
  <style
     id="style24">
		.s0 { fill: #ffffff } 
		.s1 { fill: #000000 } 
	</style>
  <g
     inkscape:groupmode="layer"
     id="layer1"
     inkscape:label="Layer 1"
     style="display:inline">
    <g
       id="Background"
       style="filter:url(#filter793)">
      <path
         id="Path 0"
         class="s0"
         d="M 0,0 H 134 V 159 H 0 V 79.5 Z" />
      <path
         id="Path 1"
         class="s1"
         d="m 25.9,11.4 c 0.3,0.2 1.6,2.3 2.8,4.7 1.2,2.4 4,6.9 6.3,9.9 2.2,3 8.2,9.7 13.3,14.9 5,5.2 13.5,13.1 18.7,17.5 5.2,4.5 10.3,8.7 11.3,9.4 1.5,1 2.1,0.5 5.1,-4.1 1.8,-2.8 4.1,-5.8 5,-6.5 1.5,-1.1 1.3,-1.7 -1.3,-6.5 -1.5,-2.8 -3.2,-7.2 -3.6,-9.7 -0.5,-2.9 -0.2,-7.2 0.8,-12 0.8,-4.1 2.5,-9.7 3.8,-12.3 1.3,-2.6 3,-5 3.7,-5.2 0.7,-0.3 2.1,1.2 3.2,3.5 1.1,2.2 6.2,8.4 11.4,13.7 7.8,8.2 9.6,10.7 11,15.3 0.9,3.1 1.6,9 1.6,13.5 0,4.4 -0.7,10.4 -1.5,13.2 -1,3.5 -2.5,6 -4.2,7.4 -1.6,1.1 -3.7,1.9 -4.8,1.7 -1.5,-0.2 -2.3,-1.6 -3.3,-5.3 -0.6,-2.8 -1.9,-5.7 -2.7,-6.5 -1.2,-1.1 -2,-1.2 -3.3,-0.4 -0.9,0.6 -3.4,3.6 -9.2,12.4 l 7.8,8.3 c 4.2,4.5 9.5,11 11.7,14.2 2.1,3.3 4.8,8.2 5.9,11 1.2,3.2 1.9,7.5 1.9,12 0.1,3.8 -0.7,9.7 -1.7,13 -0.9,3.3 -2.6,7.9 -3.7,10.2 -1,2.4 -2.5,4.3 -3.1,4.3 -0.7,0 -2.1,-2.3 -3,-5.2 -0.9,-2.9 -3.9,-8.7 -6.7,-12.8 C 96.4,130.9 89.9,123 84.8,117.4 79.7,111.9 71.5,103.6 66.5,99 61.5,94.4 55.8,89 50.1,83.5 l -1.3,2.9 C 48.1,87.9 45.4,90.7 38,96 l 0.3,5.8 c 0.1,4.3 0.9,6.8 2.7,9.5 1.4,2.1 5.7,6.3 9.5,9.5 4.4,3.6 7.8,7.4 9.2,10.2 1.3,2.5 2.3,6.4 2.3,8.8 0,2.3 -0.5,5.1 -1,6.2 -0.5,1.1 -2.6,2.7 -4.5,3.5 -2.7,1.1 -7.6,1.5 -20.5,1.5 -9.3,0 -17.7,-0.2 -18.5,-0.5 -0.8,-0.3 -1.5,-1.2 -1.5,-2 0,-0.8 1.8,-3.7 4,-6.5 2.2,-2.7 4,-5.7 4,-6.5 0,-0.8 -1.7,-3.1 -7.5,-8.5 v -15.2 c 0,-12.7 0.3,-15.9 1.8,-18.6 1,-1.8 4.5,-5 8.5,-7.6 3.7,-2.4 7.9,-5.7 9.5,-7.5 C 37.8,76.4 39,74.5 39,74 39,73.5 34.8,68.8 29.7,63.7 23.7,57.8 19.5,52.7 18,49.5 16.7,46.8 15.4,42.5 15.2,40 14.9,37.1 15.5,32.9 17,28 c 1.2,-4.1 2.9,-8.9 3.7,-10.5 0.9,-1.6 2.2,-3.8 3,-4.7 0.8,-1 1.8,-1.6 2.2,-1.4 z" />
    </g>
  </g>
  <path
     style="fill:none;stroke:#000000;stroke-width:1px;stroke-linecap:butt;stroke-linejoin:miter;stroke-opacity:1"
     d="m 25.9,11.4 c 0,0 -1.54901,-0.970175 -5.526486,6.587029 -3.314563,8.441087 -5.435883,17.942834 -5.259107,19.091883 -0.04419,1.325825 0,3.447145 0.30936,4.286835 0.08839,1.016466 1.635184,8.131728 5.745242,13.037281 4.110058,4.905553 18.208,18.915106 17.898641,19.533825 -0.265165,0.707106 -0.707107,1.988737 -2.695845,4.065864 -1.988738,2.077126 -6.584932,5.656854 -10.429825,8.26431 -3.844893,2.607456 -7.468815,6.098796 -7.866563,7.292039 -0.397748,1.193243 -1.59099,4.24264 -1.458408,9.766914 C 16.528621,108.89444 16.5,127 16.5,127 c 0,0 7.85099,7.04093 7.541631,8.41095 -0.30936,1.37002 -2.828428,5.56846 -3.712311,6.09879 -0.618719,0.97228 -3.844893,5.12653 -4.154252,6.31977 -0.30936,1.19324 0.574524,2.20971 1.458407,2.74004 1.502602,0.13258 20.948039,0.48614 24.925514,0.35355 2.253903,-0.0442 5.92202,-0.13258 8.308505,-0.35355 2.386485,-0.22097 4.905553,-0.30936 8.26431,-2.65165 1.193243,-1.01647 2.342292,-1.41421 2.695845,-5.70105 0.220971,-2.43068 0.132583,-6.58493 -1.458408,-9.76691 -1.59099,-3.18198 -2.607456,-5.74524 -11.092737,-12.68373 -4.949748,-4.68458 -8.529476,-7.64559 -9.63433,-10.87177 C 38.53732,105.66827 38.213981,104.53973 38,96 c 3.277358,-2.529323 6.14998,-4.562255 7.033863,-5.490332 1.06066,-0.795495 3.447146,-3.181981 3.933282,-4.596194 C 49.674251,84.455066 50.1,83.5 50.1,83.5 c 0,0 24.499765,22.87538 24.853319,23.67087 1.016466,0.97227 17.545087,18.07542 18.826718,20.77126 2.165514,2.69585 8.529473,10.73919 10.562403,16.35185 0.75131,1.54679 1.37002,2.96101 1.63519,3.88908 0.26516,0.92808 0.97227,2.47488 1.54679,3.57973 0.57453,1.10486 1.21386,1.2333 1.21386,1.2333 0,0 0.17188,0.11328 0.71485,-0.38672 0.48828,-0.53515 0.85156,-0.95312 1.36718,-1.78125 0.46094,-0.83593 1.0625,-1.97656 1.10156,-2.1875 0.13282,-0.26562 1.14844,-2.58593 1.27344,-3.00781 0.15625,-0.41406 1.01563,-2.73437 1.17188,-3.20312 0.15625,-0.46875 0.98437,-2.96094 1.05468,-3.32032 0.10157,-0.375 0.82032,-2.94531 0.92969,-3.82812 0.17969,-0.86719 0.67969,-4.15625 0.66406,-4.35156 0.0469,-0.42188 0.3125,-3.58594 0.27344,-4.16407 0.0156,-0.59375 -0.008,-4.33593 -0.15625,-4.89843 -0.0391,-0.60157 -0.34375,-3.17188 -0.5,-3.75 -0.15625,-0.57813 -0.375,-2.35157 -1.11719,-4.26563 -0.25781,-0.67187 -0.97656,-2.39844 -1.51562,-3.39844 -0.53906,-1 -1.22656,-2.44531 -1.73438,-3.26562 -0.46875,-0.875 -1.63281,-2.89063 -1.84375,-3.16406 -0.79687,-1.33594 -1.10937,-1.88282 -2.75781,-4.039065 C 107.36719,99.59375 98.875,89.1875 96.375,86.75 93.9375,84.125 90,80 90,80 c 0,0 3.75,-5.75 5.5,-8.125 1.875,-2.5 2.375,-3.0625 3.34375,-4 0.46875,-0.375 1.03125,-0.6875 1.625,-0.84375 0.6875,0.0625 1.375,0.1875 2,0.9375 0.625,0.75 2.09375,3.65625 2.3125,4.875 0.375,1.25 1.09375,4.6875 1.9375,5.75 1.03125,1 0.78125,1.09375 2.0625,1.21875 1.5,-0.21875 2.31875,-0.39375 4.51875,-1.7125 1.7625,-1.94375 3.075,-2.94375 4.45,-8.5375 0.875,-5.65625 1.34375,-6.5 1.1875,-14.09375 -0.15625,-2.1875 -0.40625,-6.71875 -0.71875,-7.21875 -0.125,-1.3125 -0.59375,-5.15625 -2.8125,-8.875 -2.6875,-3.71875 -2.59375,-3.75 -6.3125,-7.84375 -3.9375,-4.09375 -9.75,-10.09375 -11.1875,-12.375 C 96.1875,16.875 95.46875,16.03125 94.4375,14 93.84375,13 93.325,11.9375 92.5625,11.71875 91.791662,11.497608 91.550482,11.428417 91.8,11.5 v 0 0 0"
     id="path1991"
     sodipodi:nodetypes="ccccscsssccscsccsccscscccccccsscccccscccccscsccccccccscccccccccccscccc" />
  <path
     style="fill:none;stroke:#000000;stroke-width:1px;stroke-linecap:butt;stroke-linejoin:miter;stroke-opacity:1"
     d="m 91.8,11.5 c -1.290332,0.565009 -2.513767,3.019299 -2.837128,3.526019 -0.534546,0.837655 -2.077126,4.419417 -2.607457,6.231379 -0.530331,1.811961 -2.872621,9.32497 -3.137786,15.158601 -0.265165,5.833631 1.502602,8.396893 2.165515,10.562408 0.972271,2.165514 3.226174,6.408155 3.756504,7.73398 0.220971,1.149049 0.574525,1.458408 -0.353553,2.077126 -0.839689,0.928078 -3.314563,3.623923 -3.889087,4.728777 -0.83969,1.104854 -3.093592,4.905553 -3.623922,5.259107 -0.530331,0.7513 -0.83969,1.104854 -1.546797,1.370019 -0.441941,0.176777 -0.883883,0.220971 -2.430679,-1.104854 C 75.748814,65.716736 62.402173,54.800775 60.546018,52.679455 58.292115,50.558135 47.199378,40.526057 43.000931,35.311145 38.360543,30.096232 34.913397,26.516504 31.466252,20.85965 28.107495,15.026019 29.859146,18.281372 28.578125,15.875 27.296893,13.468233 26.732073,11.905086 25.9,11.4 l 0.03516,-0.101562"
     id="path1993"
     sodipodi:nodetypes="csssccccccscccscc" />
</svg>
